<!DOCTYPE svg PUBLIC "-//W3C//DTD SVG 1.1//EN" "http://www.w3.org/Graphics/SVG/1.1/DTD/svg11.dtd">

<!-- Uploaded to: SVG Repo, www.svgrepo.com, Transformed by: SVG Repo Mixer Tools -->
<svg width="40px" height="40px" viewBox="-2.72 -2.72 21.44 21.44" xmlns="http://www.w3.org/2000/svg" fill="#697776" stroke="#697776" stroke-width="0.00016" transform="rotate(0)">

<g id="SVGRepo_bgCarrier" stroke-width="0" transform="translate(0,0), scale(1)">

<rect x="-2.72" y="-2.72" width="21.44" height="21.44" rx="10.72" fill="#d4d4d4" strokewidth="0"/>

</g>

<g id="SVGRepo_tracerCarrier" stroke-linecap="round" stroke-linejoin="round" stroke="#b82e2e" stroke-width="0.064"/>

<g id="SVGRepo_iconCarrier"> <path d="m 8 1 c -1.65625 0 -3 1.34375 -3 3 s 1.34375 3 3 3 s 3 -1.34375 3 -3 s -1.34375 -3 -3 -3 z m -1.5 7 c -2.492188 0 -4.5 2.007812 -4.5 4.5 v 0.5 c 0 1.109375 0.890625 2 2 2 h 8 c 1.109375 0 2 -0.890625 2 -2 v -0.5 c 0 -2.492188 -2.007812 -4.5 -4.5 -4.5 z m 0 0" fill="#4c7766"/> </g>

</svg>