<svg width="32" height="32" viewBox="0 0 32 32" fill="none" xmlns="http://www.w3.org/2000/svg">
<path d="M21.3333 32L10.6667 28.2667L2.4 31.4667C1.80741 31.7037 1.25926 31.637 0.755556 31.2667C0.251852 30.8963 0 30.4 0 29.7778V4.88889C0 4.5037 0.111111 4.16296 0.333333 3.86667C0.555556 3.57037 0.859259 3.34815 1.24444 3.2L10.6667 0L21.3333 3.73333L29.6 0.533333C30.1926 0.296296 30.7407 0.362963 31.2444 0.733333C31.7481 1.1037 32 1.6 32 2.22222V27.1111C32 27.4963 31.8889 27.837 31.6667 28.1333C31.4444 28.4296 31.1407 28.6519 30.7556 28.8L21.3333 32ZM19.5556 27.6444V6.84444L12.4444 4.35556V25.1556L19.5556 27.6444ZM23.1111 27.6444L28.4444 25.8667V4.8L23.1111 6.84444V27.6444ZM3.55556 27.2L8.88889 25.1556V4.35556L3.55556 6.13333V27.2Z" fill="#4C7766"/>
</svg>
