<svg width="32" height="32" viewBox="0 0 32 33" fill="none" xmlns="http://www.w3.org/2000/svg">
<path d="M3.2 32.575C2.32 32.575 1.56667 32.2617 0.94 31.635C0.313333 31.0083 0 30.255 0 29.375V11.775C0 10.895 0.313333 10.1417 0.94 9.51501C1.56667 8.88835 2.32 8.57501 3.2 8.57501H11.2V3.77501C11.2 2.89501 11.5133 2.14168 12.14 1.51501C12.7667 0.888346 13.52 0.575012 14.4 0.575012H17.6C18.48 0.575012 19.2333 0.888346 19.86 1.51501C20.4867 2.14168 20.8 2.89501 20.8 3.77501V8.57501H28.8C29.68 8.57501 30.4333 8.88835 31.06 9.51501C31.6867 10.1417 32 10.895 32 11.775V29.375C32 30.255 31.6867 31.0083 31.06 31.635C30.4333 32.2617 29.68 32.575 28.8 32.575H3.2ZM3.2 29.375H28.8V11.775H20.8C20.8 12.655 20.4867 13.4083 19.86 14.035C19.2333 14.6617 18.48 14.975 17.6 14.975H14.4C13.52 14.975 12.7667 14.6617 12.14 14.035C11.5133 13.4083 11.2 12.655 11.2 11.775H3.2V29.375ZM6.4 26.175H16V25.455C16 25.0017 15.8733 24.5817 15.62 24.195C15.3667 23.8083 15.0133 23.5083 14.56 23.295C14.0267 23.055 13.4867 22.875 12.94 22.755C12.3933 22.635 11.8133 22.575 11.2 22.575C10.5867 22.575 10.0067 22.635 9.46 22.755C8.91333 22.875 8.37333 23.055 7.84 23.295C7.38667 23.5083 7.03333 23.8083 6.78 24.195C6.52667 24.5817 6.4 25.0017 6.4 25.455V26.175ZM19.2 23.775H25.6V21.375H19.2V23.775ZM11.2 21.375C11.8667 21.375 12.4333 21.1417 12.9 20.675C13.3667 20.2083 13.6 19.6417 13.6 18.975C13.6 18.3083 13.3667 17.7417 12.9 17.275C12.4333 16.8083 11.8667 16.575 11.2 16.575C10.5333 16.575 9.96667 16.8083 9.5 17.275C9.03333 17.7417 8.8 18.3083 8.8 18.975C8.8 19.6417 9.03333 20.2083 9.5 20.675C9.96667 21.1417 10.5333 21.375 11.2 21.375ZM19.2 18.975H25.6V16.575H19.2V18.975ZM14.4 11.775H17.6V3.77501H14.4V11.775Z" fill="#4C7766"/>
</svg>
