<svg width="32" height="26" viewBox="0 0 32 26" fill="none" xmlns="http://www.w3.org/2000/svg">
<path d="M3.2 26C2.32 26 1.56667 25.6818 0.94 25.0453C0.313333 24.4089 0 23.6437 0 22.75V3.25C0 2.35625 0.313333 1.59115 0.94 0.954688C1.56667 0.318229 2.32 0 3.2 0H28.8C29.68 0 30.4333 0.318229 31.06 0.954688C31.6867 1.59115 32 2.35625 32 3.25V22.75C32 23.6437 31.6867 24.4089 31.06 25.0453C30.4333 25.6818 29.68 26 28.8 26H3.2ZM16 14.625L3.2 6.5V22.75H28.8V6.5L16 14.625ZM16 11.375L28.8 3.25H3.2L16 11.375ZM3.2 6.5V3.25V22.75V6.5Z" fill="#4C7766"/>
</svg>
