<svg width="32" height="32" viewBox="0 0 32 32" fill="none" xmlns="http://www.w3.org/2000/svg">
<path d="M16 32C13.7867 32 11.7067 31.58 9.76 30.74C7.81333 29.9 6.12 28.76 4.68 27.32C3.24 25.88 2.1 24.1867 1.26 22.24C0.42 20.2933 0 18.2133 0 16C0 13.7867 0.42 11.7067 1.26 9.76C2.1 7.81333 3.24 6.12 4.68 4.68C6.12 3.24 7.81333 2.1 9.76 1.26C11.7067 0.42 13.7867 0 16 0C18.2133 0 20.2933 0.42 22.24 1.26C24.1867 2.1 25.88 3.24 27.32 4.68C28.76 6.12 29.9 7.81333 30.74 9.76C31.58 11.7067 32 13.7867 32 16C32 18.2133 31.58 20.2933 30.74 22.24C29.9 24.1867 28.76 25.88 27.32 27.32C25.88 28.76 24.1867 29.9 22.24 30.74C20.2933 31.58 18.2133 32 16 32ZM14.4 28.72V25.6C13.52 25.6 12.7667 25.2867 12.14 24.66C11.5133 24.0333 11.2 23.28 11.2 22.4V20.8L3.52 13.12C3.44 13.6 3.36667 14.08 3.3 14.56C3.23333 15.04 3.2 15.52 3.2 16C3.2 19.2267 4.26 22.0533 6.38 24.48C8.5 26.9067 11.1733 28.32 14.4 28.72ZM25.44 24.64C25.9733 24.0533 26.4533 23.42 26.88 22.74C27.3067 22.06 27.66 21.3533 27.94 20.62C28.22 19.8867 28.4333 19.1333 28.58 18.36C28.7267 17.5867 28.8 16.8 28.8 16C28.8 13.3867 28.0733 11 26.62 8.84C25.1667 6.68 23.2267 5.12 20.8 4.16V4.8C20.8 5.68 20.4867 6.43333 19.86 7.06C19.2333 7.68667 18.48 8 17.6 8H14.4V11.2C14.4 11.6533 14.2467 12.0333 13.94 12.34C13.6333 12.6467 13.2533 12.8 12.8 12.8H9.6V16H19.2C19.6533 16 20.0333 16.1533 20.34 16.46C20.6467 16.7667 20.8 17.1467 20.8 17.6V22.4H22.4C23.0933 22.4 23.72 22.6067 24.28 23.02C24.84 23.4333 25.2267 23.9733 25.44 24.64Z" fill="#4C7766"/>
</svg>
