<svg width="32" height="32" viewBox="0 0 32 32" fill="none" xmlns="http://www.w3.org/2000/svg">
<path d="M4 32C2.9 32 1.95833 31.7016 1.175 31.1048C0.391667 30.5079 0 29.7905 0 28.9524V13.7143C0 12.8762 0.391667 12.1587 1.175 11.5619C1.95833 10.9651 2.9 10.6667 4 10.6667H6V7.61905C6 5.51111 6.975 3.71429 8.925 2.22857C10.875 0.742857 13.2333 0 16 0C18.7667 0 21.125 0.742857 23.075 2.22857C25.025 3.71429 26 5.51111 26 7.61905V10.6667H28C29.1 10.6667 30.0417 10.9651 30.825 11.5619C31.6083 12.1587 32 12.8762 32 13.7143V28.9524C32 29.7905 31.6083 30.5079 30.825 31.1048C30.0417 31.7016 29.1 32 28 32H4ZM4 28.9524H28V13.7143H4V28.9524ZM16 24.381C17.1 24.381 18.0417 24.0825 18.825 23.4857C19.6083 22.8889 20 22.1714 20 21.3333C20 20.4952 19.6083 19.7778 18.825 19.181C18.0417 18.5841 17.1 18.2857 16 18.2857C14.9 18.2857 13.9583 18.5841 13.175 19.181C12.3917 19.7778 12 20.4952 12 21.3333C12 22.1714 12.3917 22.8889 13.175 23.4857C13.9583 24.0825 14.9 24.381 16 24.381ZM10 10.6667H22V7.61905C22 6.34921 21.4167 5.26984 20.25 4.38095C19.0833 3.49206 17.6667 3.04762 16 3.04762C14.3333 3.04762 12.9167 3.49206 11.75 4.38095C10.5833 5.26984 10 6.34921 10 7.61905V10.6667Z" fill="#4C7766"/>
</svg>
